<svg xmlns="http://www.w3.org/2000/svg" xmlns:xlink="http://www.w3.org/1999/xlink" width="500" zoomAndPan="magnify" viewBox="0 0 375 374.999991" height="500" preserveAspectRatio="xMidYMid meet" version="1.0"><defs><clipPath id="53dd1e2616"><path d="M 5 65.625 L 371 65.625 L 371 309 L 5 309 Z M 5 65.625 " clip-rule="nonzero"/></clipPath><clipPath id="adea3c5c90"><path d="M 110.3125 65.625 L 264.8125 65.625 L 264.8125 205.125 L 110.3125 205.125 Z M 110.3125 65.625 " clip-rule="nonzero"/></clipPath></defs><g clip-path="url(#53dd1e2616)"><path fill="#ffffff" d="M 31.554688 169.3125 C 21.394531 145.113281 14.332031 120.042969 10.375 94.097656 C 8.714844 86.582031 7.347656 80.96875 6.886719 78.53125 C 4.003906 68.597656 6.683594 66.84375 8.066406 65.605469 C 8.542969 65.378906 9.042969 65.265625 9.570312 65.265625 C 10.097656 65.265625 10.601562 65.378906 11.078125 65.605469 C 12.269531 66.355469 13.257812 67.320312 14.035156 68.496094 C 14.816406 69.671875 15.320312 70.953125 15.546875 72.347656 C 20.640625 88.242188 26.660156 103.777344 33.605469 118.953125 C 35.191406 124.238281 37.390625 129.253906 40.203125 134.003906 C 43.011719 138.75 46.355469 143.089844 50.222656 147.023438 C 59.605469 158.582031 69.578125 168.71875 76.667969 175.941406 C 80.492188 179.277344 84.023438 182.894531 87.265625 186.796875 C 87.503906 187.933594 87.988281 188.953125 88.71875 189.855469 C 89.449219 190.757812 90.34375 191.441406 91.402344 191.914062 C 92.65625 192.492188 93.972656 192.792969 95.355469 192.816406 C 96.09375 192.871094 96.824219 192.816406 97.546875 192.65625 C 98.269531 192.496094 98.953125 192.234375 99.601562 191.875 C 100.246094 191.515625 100.828125 191.066406 101.34375 190.535156 C 101.859375 190.007812 102.289062 189.414062 102.628906 188.753906 C 106.195312 182.199219 102.039062 177.675781 88.578125 163.828125 C 81.191406 156.441406 71.957031 146.910156 62.929688 136.644531 C 59.949219 133.78125 57.367188 130.59375 55.179688 127.085938 C 52.992188 123.582031 51.265625 119.859375 50.003906 115.925781 C 51.515625 112.046875 53.269531 110.128906 54.878906 109.777344 C 57.371094 109.277344 59.496094 112.085938 60.417969 113.324219 C 68.867188 123.230469 78.066406 132.382812 88.019531 140.777344 C 97.972656 149.175781 108.542969 156.703125 119.730469 163.363281 L 127.707031 168.019531 C 145.894531 176.882812 168.332031 188.332031 168.832031 239.832031 L 103.628906 239.832031 C 85.179688 223.101562 40.328125 180.761719 31.554688 169.3125 Z M 96.574219 256.5625 L 179.875 256.5625 L 179.875 308.765625 L 96.574219 308.765625 Z M 279.625 308.765625 L 196.289062 308.765625 L 196.289062 256.5625 L 279.625 256.5625 Z M 369.390625 78.550781 C 368.539062 80.933594 367.542969 86.566406 365.9375 94.082031 C 361.789062 119.972656 354.722656 145.042969 344.738281 169.292969 C 336.078125 180.59375 291.1875 223.011719 272.71875 239.757812 L 206.890625 239.757812 C 207.40625 188.238281 229.859375 176.808594 248.050781 167.945312 C 250.808594 166.539062 253.484375 164.996094 256.082031 163.308594 C 267.335938 156.753906 277.9375 149.273438 287.890625 140.867188 C 297.839844 132.464844 306.992188 123.265625 315.339844 113.265625 C 316.335938 112.011719 318.773438 109.203125 321.230469 109.722656 C 322.78125 110.074219 324.609375 111.992188 326.125 115.871094 C 324.855469 119.804688 323.128906 123.523438 320.941406 127.03125 C 318.753906 130.535156 316.171875 133.722656 313.199219 136.589844 C 303.835938 146.855469 294.878906 156.367188 287.566406 163.808594 C 273.753906 177.492188 270.042969 182.089844 273.457031 188.609375 C 273.769531 189.304688 274.183594 189.933594 274.695312 190.5 C 275.210938 191.0625 275.800781 191.53125 276.464844 191.90625 C 277.128906 192.28125 277.835938 192.539062 278.585938 192.6875 C 279.335938 192.832031 280.089844 192.859375 280.84375 192.761719 C 282.1875 192.699219 283.472656 192.398438 284.703125 191.859375 C 285.234375 191.644531 285.730469 191.367188 286.1875 191.023438 C 286.644531 190.683594 287.054688 190.289062 287.410156 189.84375 C 287.769531 189.398438 288.0625 188.914062 288.296875 188.390625 C 288.53125 187.867188 288.691406 187.324219 288.785156 186.761719 C 292.078125 182.855469 295.660156 179.234375 299.53125 175.902344 C 306.585938 168.683594 316.152344 158.546875 325.976562 146.96875 C 329.898438 143.101562 333.238281 138.789062 336.003906 134.027344 C 338.765625 129.265625 340.851562 124.222656 342.261719 118.898438 C 349.320312 103.75 355.382812 88.214844 360.453125 72.292969 C 360.710938 70.933594 361.214844 69.667969 361.960938 68.503906 C 362.710938 67.339844 363.644531 66.355469 364.773438 65.550781 C 365.269531 65.292969 365.800781 65.167969 366.359375 65.167969 C 366.921875 65.167969 367.449219 65.292969 367.949219 65.550781 C 369.535156 66.84375 371.789062 68.597656 369.390625 78.550781 Z M 369.390625 78.550781 " fill-opacity="1" fill-rule="nonzero"/></g><g clip-path="url(#adea3c5c90)"><path fill="#dc464b" d="M 264.355469 110.878906 C 264.808594 85.414062 251.097656 65.667969 225.171875 65.667969 C 205.253906 65.667969 193.265625 73.59375 187.402344 88.867188 C 179.871094 74.925781 169.550781 65.667969 149.632812 65.667969 C 125.210938 65.667969 110.324219 86.832031 110.445312 110.878906 C 110.691406 159.90625 186.339844 204.429688 187.390625 205.066406 L 187.390625 205.082031 L 187.402344 205.074219 L 187.414062 205.082031 L 187.414062 205.066406 C 188.460938 204.429688 263.484375 160.410156 264.355469 110.878906 " fill-opacity="1" fill-rule="nonzero"/></g><path fill="#f0efec" d="M 217.609375 124.25 L 198.96875 124.25 L 198.96875 105.597656 L 176.726562 105.597656 L 176.726562 124.25 L 158.082031 124.25 L 158.082031 146.5 L 176.726562 146.5 L 176.726562 165.148438 L 198.96875 165.148438 L 198.96875 146.5 L 217.609375 146.5 L 217.609375 124.25 " fill-opacity="1" fill-rule="nonzero"/></svg>